# xmcd
#
# Track frame offsets: 
#        150
#        13531
#        23933
#        38145
#        53824
#        64962
#        79333
#        93095
#        110345
#        119933
#        133911
#        151535
#        166014
#
# Disc length: 2393 seconds
#
# Revision: 0
# Processed by: cddbd v1.5.2PL0 Copyright (c) Steve Scherf et al.
# Submitted via: ExactAudioCopy v0.99pb4
#
DISCID=a309570d
DTITLE=Lambert, Brad - Old Crossroads
DYEAR=2010
DGENRE=Bluegrass
TTITLE0=Little Black Train
TTITLE1=I'm Almost Home
TTITLE2=Swing Low Sweet Chariot
TTITLE3=Sounds Like Home
TTITLE4=Prayer Bells of Heaven
TTITLE5=When He Calls My Name
TTITLE6=Take Me In Your Lifeboat
TTITLE7=One Way Flight
TTITLE8=When My Time Comes to Go
TTITLE9=I See Jesus
TTITLE10=Jerusalem Moan
TTITLE11=Old Crossroads
TTITLE12=A Beautiful Life
EXTD=
EXTT0=
EXTT1=
EXTT2=
EXTT3=
EXTT4=
EXTT5=
EXTT6=
EXTT7=
EXTT8=
EXTT9=
EXTT10=
EXTT11=
EXTT12=
PLAYORDER=
